<svg width="44" height="44" viewBox="0 0 44 44" fill="none" xmlns="http://www.w3.org/2000/svg">
<path d="M21.0625 21.0625C21.3333 20.7917 21.6458 20.6562 22 20.6562C22.3542 20.6562 22.6667 20.7917 22.9375 21.0625C23.2083 21.3333 23.3438 21.6458 23.3438 22C23.3438 22.3542 23.2083 22.6667 22.9375 22.9375C22.6667 23.2083 22.3542 23.3438 22 23.3438C21.6458 23.3438 21.3333 23.2083 21.0625 22.9375C20.7917 22.6667 20.6562 22.3542 20.6562 22C20.6562 21.6458 20.7917 21.3333 21.0625 21.0625ZM25.0625 21.0625C25.3333 20.7917 25.6458 20.6562 26 20.6562C26.3542 20.6562 26.6667 20.7917 26.9375 21.0625C27.2083 21.3333 27.3438 21.6458 27.3438 22C27.3438 22.3542 27.2083 22.6667 26.9375 22.9375C26.6667 23.2083 26.3542 23.3438 26 23.3438C25.6458 23.3438 25.3333 23.2083 25.0625 22.9375C24.7917 22.6667 24.6562 22.3542 24.6562 22C24.6562 21.6458 24.7917 21.3333 25.0625 21.0625ZM17.0625 21.0625C17.3333 20.7917 17.6458 20.6562 18 20.6562C18.3542 20.6562 18.6667 20.7917 18.9375 21.0625C19.2083 21.3333 19.3438 21.6458 19.3438 22C19.3438 22.3542 19.2083 22.6667 18.9375 22.9375C18.6667 23.2083 18.3542 23.3438 18 23.3438C17.6458 23.3438 17.3333 23.2083 17.0625 22.9375C16.7917 22.6667 16.6562 22.3542 16.6562 22C16.6562 21.6458 16.7917 21.3333 17.0625 21.0625Z" fill="white"/>
</svg>
